<svg width="0" height="0" class="hidden">
  <symbol  xmlns="http://www.w3.org/2000/svg" viewBox="0 0 24 24" id="account">
    <path d="M17 9V6C17 4.67392 16.4732 3.40215 15.5355 2.46447C14.5979 1.52678 13.3261 1 12 1C10.6739 1 9.40215 1.52678 8.46447 2.46447C7.52678 3.40215 7 4.67392 7 6V9H3V23H21V9H17ZM8.5 6C8.5 5.07174 8.86875 4.1815 9.52513 3.52513C10.1815 2.86875 11.0717 2.5 12 2.5C12.9283 2.5 13.8185 2.86875 14.4749 3.52513C15.1313 4.1815 15.5 5.07174 15.5 6V9H8.5V6ZM19.5 21.5H4.5V10.5H19.5V21.5ZM12 17.92C12.1981 17.9174 12.3874 17.8376 12.5275 17.6975C12.6676 17.5574 12.7474 17.3681 12.75 17.17V14.83C12.75 14.6311 12.671 14.4403 12.5303 14.2997C12.3897 14.159 12.1989 14.08 12 14.08C11.8011 14.08 11.6103 14.159 11.4697 14.2997C11.329 14.4403 11.25 14.6311 11.25 14.83V17.17C11.2526 17.3681 11.3324 17.5574 11.4725 17.6975C11.6126 17.8376 11.8019 17.9174 12 17.92V17.92Z" ></path>
  </symbol>
  <symbol xmlns="http://www.w3.org/2000/svg" viewBox="0 0 24 24" id="companies">
    <path d="M7.5 3.5C8.29113 3.5 9.06449 3.7346 9.72228 4.17412C10.3801 4.61365 10.8928 5.23836 11.1955 5.96927C11.4983 6.70017 11.5775 7.50444 11.4231 8.28036C11.2688 9.05629 10.8878 9.76902 10.3284 10.3284C9.76902 10.8878 9.05629 11.2688 8.28036 11.4231C7.50444 11.5775 6.70017 11.4983 5.96927 11.1955C5.23836 10.8928 4.61365 10.3801 4.17412 9.72228C3.7346 9.06448 3.5 8.29113 3.5 7.5C3.5 6.43913 3.92143 5.42172 4.67158 4.67157C5.42172 3.92143 6.43914 3.5 7.5 3.5V3.5ZM19 7.5C19.2967 7.5 19.5867 7.58797 19.8334 7.7528C20.08 7.91762 20.2723 8.15189 20.3858 8.42597C20.4994 8.70006 20.5291 9.00166 20.4712 9.29264C20.4133 9.58361 20.2704 9.85088 20.0607 10.0607C19.8509 10.2704 19.5836 10.4133 19.2926 10.4712C19.0017 10.5291 18.7001 10.4994 18.426 10.3858C18.1519 10.2723 17.9176 10.08 17.7528 9.83335C17.588 9.58668 17.5 9.29667 17.5 9C17.5 8.60218 17.658 8.22064 17.9393 7.93934C18.2206 7.65804 18.6022 7.5 19 7.5ZM14 15.5C14.4945 15.5 14.9778 15.6466 15.3889 15.9213C15.8001 16.196 16.1205 16.5865 16.3097 17.0433C16.4989 17.5001 16.5484 18.0028 16.452 18.4877C16.3555 18.9727 16.1174 19.4181 15.7678 19.7678C15.4181 20.1174 14.9727 20.3555 14.4877 20.452C14.0028 20.5484 13.5001 20.4989 13.0433 20.3097C12.5865 20.1205 12.196 19.8 11.9213 19.3889C11.6466 18.9778 11.5 18.4945 11.5 18C11.5 17.337 11.7634 16.7011 12.2322 16.2322C12.7011 15.7634 13.337 15.5 14 15.5ZM7.5 2C6.41221 2 5.34884 2.32257 4.44437 2.92692C3.5399 3.53126 2.83495 4.39025 2.41867 5.39524C2.00238 6.40023 1.89346 7.5061 2.10568 8.573C2.3179 9.63989 2.84173 10.6199 3.61092 11.3891C4.3801 12.1583 5.36011 12.6821 6.42701 12.8943C7.4939 13.1065 8.59977 12.9976 9.60476 12.5813C10.6098 12.1651 11.4687 11.4601 12.0731 10.5556C12.6774 9.65117 13 8.5878 13 7.5C12.9974 6.04212 12.417 4.64471 11.3862 3.61383C10.3553 2.58295 8.95788 2.00264 7.5 2V2ZM19 6C18.4067 6 17.8266 6.17595 17.3333 6.50559C16.8399 6.83524 16.4554 7.30377 16.2284 7.85195C16.0013 8.40013 15.9419 9.00333 16.0576 9.58527C16.1734 10.1672 16.4591 10.7018 16.8787 11.1213C17.2982 11.5409 17.8328 11.8266 18.4147 11.9424C18.9967 12.0581 19.5999 11.9987 20.1481 11.7716C20.6962 11.5446 21.1648 11.1601 21.4944 10.6667C21.8241 10.1734 22 9.59334 22 9C22 8.20435 21.6839 7.44129 21.1213 6.87868C20.5587 6.31607 19.7957 6 19 6ZM14 14C13.2089 14 12.4355 14.2346 11.7777 14.6741C11.1199 15.1136 10.6072 15.7384 10.3045 16.4693C10.0017 17.2002 9.92252 18.0044 10.0769 18.7804C10.2312 19.5563 10.6122 20.269 11.1716 20.8284C11.731 21.3878 12.4437 21.7688 13.2196 21.9231C13.9956 22.0775 14.7998 21.9983 15.5307 21.6955C16.2616 21.3928 16.8864 20.8801 17.3259 20.2223C17.7654 19.5645 18 18.7911 18 18C18 16.9391 17.5786 15.9217 16.8284 15.1716C16.0783 14.4214 15.0609 14 14 14V14Z" ></path>
  </symbol>
  <symbol  xmlns="http://www.w3.org/2000/svg" viewBox="0 0 24 24" id="dashboard">
    <path d="M3 11H11V3H3V11ZM4.5 4.5H9.5V9.5H4.5V4.5ZM13 3V11H21V3H13ZM19.5 9.5H14.5V4.5H19.5V9.5ZM3 21H11V13H3V21ZM4.5 14.5H9.5V19.5H4.5V14.5ZM13 21H21V13H13V21ZM14.5 14.5H19.5V19.5H14.5V14.5Z" ></path>
  </symbol>
  <symbol  xmlns="http://www.w3.org/2000/svg" viewBox="0 0 24 24" id="documents">
    <g clip-path="url(#clip0_1210_39194)">
      <path d="M14.5 3V2.5C14.5 1.83696 14.2366 1.20107 13.7678 0.732233C13.2989 0.263392 12.663 0 12 0C11.337 0 10.7011 0.263392 10.2322 0.732233C9.76339 1.20107 9.5 1.83696 9.5 2.5V3H4V22H20V3H14.5ZM11 2.5C11 2.23478 11.1054 1.98043 11.2929 1.79289C11.4804 1.60536 11.7348 1.5 12 1.5C12.2652 1.5 12.5196 1.60536 12.7071 1.79289C12.8946 1.98043 13 2.23478 13 2.5V3H11V2.5ZM15.4 4.5L15.22 5.17C15.1614 5.38816 15.0307 5.58006 14.8491 5.71443C14.6675 5.8488 14.4458 5.91773 14.22 5.91H9.75C9.52424 5.91773 9.30251 5.8488 9.12092 5.71443C8.93934 5.58006 8.8086 5.38816 8.75 5.17L8.6 4.5H15.4ZM18.5 20.5H5.5V4.5H7.05L7.33 5.5C7.46346 6.04219 7.7739 6.52439 8.2122 6.87032C8.65051 7.21626 9.19164 7.40616 9.75 7.41H14.25C14.8017 7.40904 15.3378 7.22632 15.7752 6.8901C16.2126 6.55388 16.5271 6.0829 16.67 5.55L16.95 4.55H18.5V20.5ZM11.4 13.8L9.14 11.54L8.14 12.54L11.35 15.75L15.95 11.15L15 10.15L11.4 13.8Z" ></path>
    </g>
    <defs>
      <clipPath id="clip0_1210_39194">
        <rect width="24" height="24" fill="white"></rect>
      </clipPath>
    </defs>
  </symbol>
  <symbol  xmlns="http://www.w3.org/2000/svg" viewBox="0 0 24 24" id="due-documents">
    <g clip-path="url(#clip0_1210_39188)">
      <path d="M14.5 3V2.5C14.5 1.83696 14.2366 1.20107 13.7678 0.732233C13.2989 0.263392 12.663 0 12 0C11.337 0 10.7011 0.263392 10.2322 0.732233C9.76339 1.20107 9.5 1.83696 9.5 2.5V3H4V22H20V3H14.5ZM11 2.5C11 2.23478 11.1054 1.98043 11.2929 1.79289C11.4804 1.60536 11.7348 1.5 12 1.5C12.2652 1.5 12.5196 1.60536 12.7071 1.79289C12.8946 1.98043 13 2.23478 13 2.5V3H11V2.5ZM15.4 4.5L15.22 5.17C15.1614 5.38816 15.0307 5.58006 14.8491 5.71443C14.6675 5.8488 14.4458 5.91773 14.22 5.91H9.75C9.52424 5.91773 9.30251 5.8488 9.12092 5.71443C8.93934 5.58006 8.8086 5.38816 8.75 5.17L8.6 4.5H15.4ZM18.5 20.5H5.5V4.5H7.05L7.33 5.5C7.46346 6.04219 7.7739 6.52439 8.2122 6.87032C8.65051 7.21626 9.19164 7.40616 9.75 7.41H14.25C14.8017 7.40904 15.3378 7.22632 15.7752 6.8901C16.2126 6.55388 16.5271 6.0829 16.67 5.55L16.95 4.55H18.5V20.5ZM12 15.1C11.822 15.1 11.648 15.1528 11.5 15.2517C11.352 15.3506 11.2366 15.4911 11.1685 15.6556C11.1004 15.82 11.0826 16.001 11.1173 16.1756C11.152 16.3502 11.2377 16.5105 11.3636 16.6364C11.4895 16.7623 11.6498 16.848 11.8244 16.8827C11.999 16.9174 12.18 16.8996 12.3444 16.8315C12.5089 16.7634 12.6494 16.648 12.7483 16.5C12.8472 16.352 12.9 16.178 12.9 16C12.9 15.7613 12.8052 15.5324 12.6364 15.3636C12.4676 15.1948 12.2387 15.1 12 15.1ZM11.43 14H12.57L12.91 9H11.09L11.43 14Z" ></path>
    </g>
    <defs>
      <clipPath id="clip0_1210_39188">
        <rect width="24" height="24" fill="white"></rect>
      </clipPath>
    </defs>
  </symbol>
  <symbol  xmlns="http://www.w3.org/2000/svg" viewBox="0 0 24 24" id="funds">
    <path d="M16 6V4C16 3.46957 15.7893 2.96086 15.4142 2.58579C15.0391 2.21071 14.5304 2 14 2H10C9.46957 2 8.96086 2.21071 8.58579 2.58579C8.21071 2.96086 8 3.46957 8 4V6H2V21H22V6H16ZM9.5 4C9.5 3.86739 9.55268 3.74021 9.64645 3.64645C9.74021 3.55268 9.86739 3.5 10 3.5H14C14.1326 3.5 14.2598 3.55268 14.3536 3.64645C14.4473 3.74021 14.5 3.86739 14.5 4V6H9.5V4ZM3.5 7.5H20.5V10C20.5 10.3978 20.342 10.7794 20.0607 11.0607C19.7794 11.342 19.3978 11.5 19 11.5H5C4.60218 11.5 4.22064 11.342 3.93934 11.0607C3.65804 10.7794 3.5 10.3978 3.5 10V7.5ZM3.5 19.5V12.58C3.95314 12.8523 4.47133 12.9974 5 13H11.25V15H12.75V13H19C19.5287 12.9974 20.0469 12.8523 20.5 12.58V19.5H3.5Z" ></path>
  </symbol>
  <symbol  xmlns="http://www.w3.org/2000/svg" viewBox="0 0 24 24" id="members">
    <path d="M19.3177 16.4039C18.7311 15.8168 18.0456 15.3376 17.2927 14.9883C18.3545 14.1281 19.0318 12.8156 19.0318 11.3438C19.0318 8.74688 16.8662 6.61641 14.2693 6.65625C11.7123 6.69609 9.65211 8.77969 9.65211 11.3438C9.65211 12.8156 10.3318 14.1281 11.3912 14.9883C10.6381 15.3373 9.95263 15.8166 9.36617 16.4039C8.08648 17.6859 7.35992 19.3781 7.31305 21.1828C7.31242 21.2078 7.31681 21.2327 7.32595 21.256C7.33509 21.2793 7.34881 21.3005 7.36628 21.3184C7.38375 21.3363 7.40464 21.3506 7.42769 21.3603C7.45075 21.37 7.47552 21.375 7.50055 21.375H8.81305C8.91383 21.375 8.9982 21.2953 9.00055 21.1945C9.04508 19.8352 9.59586 18.5625 10.5638 17.5969C11.0592 17.0989 11.6483 16.7041 12.2972 16.4354C12.9462 16.1667 13.6419 16.0293 14.3443 16.0312C15.7716 16.0312 17.1146 16.5867 18.1248 17.5969C19.0904 18.5625 19.6412 19.8352 19.688 21.1945C19.6904 21.2953 19.7748 21.375 19.8755 21.375H21.188C21.2131 21.375 21.2378 21.37 21.2609 21.3603C21.284 21.3506 21.3048 21.3363 21.3223 21.3184C21.3398 21.3005 21.3535 21.2793 21.3626 21.256C21.3718 21.2327 21.3762 21.2078 21.3755 21.1828C21.3287 19.3781 20.6021 17.6859 19.3177 16.4039ZM14.3443 14.3438C13.5427 14.3438 12.788 14.032 12.2232 13.4648C11.9397 13.1836 11.7158 12.8482 11.5648 12.4785C11.4138 12.1088 11.3388 11.7126 11.3443 11.3133C11.3513 10.5445 11.6584 9.80156 12.1951 9.25078C12.7576 8.67422 13.5099 8.35313 14.3138 8.34375C15.1084 8.33672 15.8795 8.64609 16.4466 9.20156C17.0279 9.77109 17.3466 10.5328 17.3466 11.3438C17.3466 12.1453 17.0349 12.8977 16.4677 13.4648C16.1895 13.7444 15.8585 13.9661 15.494 14.1169C15.1295 14.2678 14.7388 14.3449 14.3443 14.3438ZM8.4732 11.9625C8.45211 11.7586 8.44039 11.5523 8.44039 11.3438C8.44039 10.9711 8.47555 10.6078 8.54117 10.2539C8.55758 10.1695 8.51305 10.0828 8.4357 10.0477C8.11695 9.90469 7.82398 9.70781 7.57086 9.45938C7.27259 9.17017 7.03789 8.82197 6.88172 8.43699C6.72554 8.05201 6.65134 7.6387 6.66383 7.22344C6.68492 6.47109 6.98727 5.75625 7.51461 5.21719C8.09352 4.62422 8.87164 4.30078 9.69898 4.31016C10.4466 4.31719 11.1685 4.60547 11.7146 5.11641C11.8998 5.28984 12.0591 5.48203 12.1927 5.68828C12.2396 5.76094 12.331 5.79141 12.4107 5.76328C12.8232 5.62031 13.2591 5.51953 13.7068 5.47266C13.838 5.45859 13.913 5.31797 13.8545 5.20078C13.0927 3.69375 11.5365 2.65313 9.73649 2.625C7.13727 2.58516 4.97164 4.71563 4.97164 7.31016C4.97164 8.78203 5.64898 10.0945 6.7107 10.9547C5.96539 11.2992 5.27867 11.775 4.68336 12.3703C3.39898 13.6523 2.67242 15.3445 2.62555 17.1516C2.62492 17.1766 2.62931 17.2015 2.63845 17.2248C2.64759 17.248 2.66131 17.2693 2.67878 17.2872C2.69625 17.3051 2.71713 17.3193 2.74019 17.329C2.76325 17.3388 2.78802 17.3438 2.81305 17.3438H4.12789C4.22867 17.3438 4.31305 17.2641 4.31539 17.1633C4.35992 15.8039 4.9107 14.5312 5.87867 13.5656C6.56773 12.8766 7.41148 12.3984 8.33258 12.1664C8.42399 12.143 8.48492 12.0563 8.4732 11.9625Z" ></path>
  </symbol>
</svg>